# xmcd CD database file
#
# Track frame offsets:
#	150
#	21201
#	44256
#	61026
#	92051
#	115778
#	137047
#	164126
#	188540
#	213666
#	236475
#	261303
#	287902
#	310256
#
# Disc length: 4439 seconds
#
# Revision: 4
# Processed by: cddbd v1.5.2PL0 Copyright (c) Steve Scherf et al.
# Submitted via: CDex 1.70beta2
#
DISCID=ca11550e
DTITLE=Various Artist - Love Blues Part 1 (Romantic Collection)
DYEAR=2000
DGENRE=Blues
TTITLE0=U2 - One                          
TTITLE1=Santana - Europa (Earth's Cry Heaven's Smile)
TTITLE2=Eric Clapton - Wonderful Tonight
TTITLE3=Gary Moore - Parasienne Walkways
TTITLE4=Tony Joe White - Good In Blues
TTITLE5=Dana Gilespie - Where Bue Begins
TTITLE6=Blues Company - Silent Nite
TTITLE7=Stan Webb's Chiken Shack - Don't You Worry About A Thing
TTITLE8=Jan Akkerman - Shame On You
TTITLE9=John Campbell - Wild Streak
TTITLE10=JJ. Cale - Cloudy Day
TTITLE11=ZZ Top - Cover Your Rig
TTITLE12=Lucky Peterson - Who'Been Talking
TTITLE13=London Symphonic Orchestra - One
EXTD=YEAR: 2000
EXTT0=
EXTT1=
EXTT2=
EXTT3=
EXTT4=
EXTT5=
EXTT6=
EXTT7=
EXTT8=
EXTT9=
EXTT10=
EXTT11=
EXTT12=
EXTT13=
PLAYORDER=
